<?xml version="1.0" encoding="utf-8"?>
<!-- Generator: Adobe Illustrator 27.7.0, SVG Export Plug-In . SVG Version: 6.00 Build 0)  -->
<svg version="1.1" id="Layer_1" xmlns="http://www.w3.org/2000/svg" xmlns:xlink="http://www.w3.org/1999/xlink"
	 viewBox="0 0 3840 182.7" style="enable-background:new 0 0 3840 182.7;" preserveAspectRatio="none">
<style type="text/css">
	.st0{fill:#DCA0C8;}
</style>
<path class="st0" d="M0,52.7l1.1,0c24.3-0.2,48.6,1.5,72.7,5c43.3,6.3,104.8,12.8,166.2,6.7c80-8,160-37.4,240-51.4S640,0.4,720,0.2
	s160-1.8,240,8.3c80,10.2,160,32.2,240,48.4c80,16.1,160,26.5,240,23.1c80-3.3,160-20.3,240-21c60.7-0.5,121.5,8.4,164.7,16.2
	c24.8,4.5,50.1,6.6,75.3,6.5l0,0v101h-40c-40,0-120,0-200,0s-160,0-240,0s-160,0-240,0s-160,0-240,0s-160,0-240,0s-160,0-240,0
	s-160,0-240,0s-160,0-200,0H0V52.7z"/>
<path class="st0" d="M3840,182.7h-40c-40,0-120,0-200,0s-160,0-240,0s-160,0-240,0s-160,0-240,0s-160,0-240,0s-160,0-240,0
	s-160,0-240,0s-160,0-200,0h-40v-101l0,0c25.2,0.1,50.4-2,75.3-6.5c43.2-7.8,104-16.6,164.7-16.2c80,0.7,160,17.7,240,21
	c80,3.4,160-7,240-23.1c80-16.2,160-38.2,240-48.4c80-10.1,160-8.5,240-8.3S3280-1,3360,13s160,43.4,240,51.4
	c61.4,6.1,122.9-0.3,166.2-6.7c24.1-3.5,48.4-5.2,72.7-5l1.1,0V182.7z"/>
</svg>
