<?xml version="1.0" encoding="utf-8"?>
<!-- Generator: Adobe Illustrator 27.7.0, SVG Export Plug-In . SVG Version: 6.00 Build 0)  -->
<svg version="1.1" id="Layer_1" xmlns="http://www.w3.org/2000/svg" xmlns:xlink="http://www.w3.org/1999/xlink" x="0px" y="0px"
	 viewBox="0 0 3840 960" style="enable-background:new 0 0 3840 960;" xml:space="preserve">
<style type="text/css">
	.st0{fill:#AB98C9;}
</style>
<path class="st0" d="M0,778L0,778c25.35-0.51,50.16-7.48,72.05-20.27c43.41-25.37,105.68-56.8,167.95-63.03c80-8,160,25.6,240,43.6
	s160,20.4,240,5.9s160-45.9,240-64.7s160-25.2,240-25.2s160,6.4,240,23.5c80,17.2,160,45.2,240,62.5
	c53.82,11.71,107.63,18.52,149.27,22.77c30.15,3.07,60.42,4.71,90.73,4.93l0,0v192h-40c-40,0-120,0-200,0s-160,0-240,0s-160,0-240,0
	s-160,0-240,0s-160,0-240,0s-160,0-240,0s-160,0-240,0s-160,0-200,0H0V778z"/>
<path class="st0" d="M3840,960h-40c-40,0-120,0-200,0s-160,0-240,0s-160,0-240,0s-160,0-240,0s-160,0-240,0s-160,0-240,0
	s-160,0-240,0s-160,0-200,0h-40V768l0,0c30.31-0.23,60.58-1.86,90.73-4.93c41.64-4.24,95.46-11.06,149.27-22.77
	c80-17.3,160-45.3,240-62.5c80-17.1,160-23.5,240-23.5s160,6.4,240,25.2s160,50.2,240,64.7s160,12.1,240-5.9s160-51.6,240-43.6
	c62.27,6.23,124.54,37.66,167.95,63.03c21.89,12.8,46.7,19.77,72.05,20.27l0,0V960z"/>
</svg>
