<?xml version="1.0" encoding="utf-8"?>
<!-- Generator: Adobe Illustrator 27.7.0, SVG Export Plug-In . SVG Version: 6.00 Build 0)  -->
<svg version="1.1" id="Layer_1" xmlns="http://www.w3.org/2000/svg" xmlns:xlink="http://www.w3.org/1999/xlink"
	 viewBox="0 0 3840 244.2" style="enable-background:new 0 0 3840 244.2;" preserveAspectRatio="none">
<style type="text/css">
	.st0{fill:#C49BC8;}
</style>
<path class="st0" d="M0,113.2L0,113.2c25.6-0.8,50.9-5.8,74.8-15C118.1,81.8,179.1,61,240,53c80-10.5,160,0.9,240-5.3
	s160-29.8,240-21.8s160,47.6,240,62c80,14.3,160,3.3,240-12c80-15.4,160-35,240-31.9c80,3.2,160,29.2,240,26.2
	c61.4-2.3,122.8-21.7,166.1-37.8c23.7-8.8,48.7-13.6,73.9-14.2l0,0v226h-40c-40,0-120,0-200,0s-160,0-240,0s-160,0-240,0
	s-160,0-240,0s-160,0-240,0s-160,0-240,0s-160,0-240,0s-160,0-200,0H0V113.2z"/>
<path class="st0" d="M3840,244.2h-40c-40,0-120,0-200,0s-160,0-240,0s-160,0-240,0s-160,0-240,0s-160,0-240,0s-160,0-240,0
	s-160,0-240,0s-160,0-200,0h-40v-226l0,0c25.3,0.6,50.3,5.4,73.9,14.2c43.3,16.1,104.7,35.5,166.1,37.8c80,3,160-23,240-26.2
	c80-3.1,160,16.5,240,31.9c80,15.3,160,26.3,240,12c80-14.4,160-54,240-62s160,15.6,240,21.8s160-5.2,240,5.3
	c60.9,8,121.9,28.7,165.2,45.2c23.9,9.2,49.2,14.2,74.8,15l0,0V244.2z"/>
</svg>
