<?xml version="1.0" encoding="utf-8"?>
<!-- Generator: Adobe Illustrator 27.7.0, SVG Export Plug-In . SVG Version: 6.00 Build 0)  -->
<svg version="1.1" id="Layer_1" xmlns="http://www.w3.org/2000/svg" xmlns:xlink="http://www.w3.org/1999/xlink" x="0px" y="0px"
	 viewBox="0 0 3840 102.1" style="enable-background:new 0 0 3840 102.1;" xml:space="preserve" preserveAspectRatio="none">
<style type="text/css">
	.st0{fill:#EFA6C9;}
</style>
<path class="st0" d="M0,4.1l40-0.3c40-1.4,120-4,200,3.5s160,25.1,240,33c80,7.8,160,5.8,240-0.4c80-6.1,160-16.5,240-25.8
	s160-17.7,240-12.5s160,23.8,240,34.3s160,12.9,240,14.2s160,1.7,200,1.8l40,0.2v50h-40c-40,0-120,0-200,0s-160,0-240,0
	s-160,0-240,0s-160,0-240,0s-160,0-240,0s-160,0-240,0s-160,0-240,0s-160,0-200,0H0V4.1z"/>
<path class="st0" d="M3840,102.1h-40c-40,0-120,0-200,0s-160,0-240,0s-160,0-240,0s-160,0-240,0s-160,0-240,0s-160,0-240,0
	s-160,0-240,0s-160,0-200,0h-40v-50l40-0.2c40-0.1,120-0.5,200-1.8s160-3.7,240-14.2s160-29.1,240-34.3s160,3.2,240,12.5
	s160,19.7,240,25.8c80,6.2,160,8.2,240,0.4c80-7.9,160-25.5,240-33s160-4.9,200-3.5l40,0.3V102.1z"/>
</svg>
