<?xml version="1.0" encoding="utf-8"?>
<!-- Generator: Adobe Illustrator 27.7.0, SVG Export Plug-In . SVG Version: 6.00 Build 0)  -->
<svg version="1.1" id="Layer_1" xmlns="http://www.w3.org/2000/svg" xmlns:xlink="http://www.w3.org/1999/xlink" x="0px" y="0px"
	 viewBox="0 0 3840 960" style="enable-background:new 0 0 3840 960;" xml:space="preserve">
<style type="text/css">
	.st0{fill:#C49BC8;}
</style>
<path class="st0" d="M0,829L0,829c25.61-0.77,50.91-5.81,74.84-14.96C118.1,797.51,179.05,776.8,240,768.8c80-10.5,160,0.9,240-5.3
	s160-29.8,240-21.8s160,47.6,240,62c80,14.3,160,3.3,240-12c80-15.4,160-35,240-31.9c80,3.2,160,29.2,240,26.2
	c61.37-2.3,122.75-21.67,166.06-37.79c23.68-8.81,48.68-13.58,73.94-14.21l0,0v226h-40c-40,0-120,0-200,0s-160,0-240,0s-160,0-240,0
	s-160,0-240,0s-160,0-240,0s-160,0-240,0s-160,0-240,0s-160,0-200,0H0V829z"/>
<path class="st0" d="M3840,960h-40c-40,0-120,0-200,0s-160,0-240,0s-160,0-240,0s-160,0-240,0s-160,0-240,0s-160,0-240,0
	s-160,0-240,0s-160,0-200,0h-40V734l0,0c25.26,0.63,50.26,5.4,73.94,14.21c43.31,16.12,104.69,35.49,166.06,37.79
	c80,3,160-23,240-26.2c80-3.1,160,16.5,240,31.9c80,15.3,160,26.3,240,12c80-14.4,160-54,240-62s160,15.6,240,21.8s160-5.2,240,5.3
	c60.95,8,121.9,28.71,165.16,45.24c23.93,9.15,49.23,14.19,74.84,14.96l0,0V960z"/>
</svg>
