<?xml version="1.0" encoding="utf-8"?>
<!-- Generator: Adobe Illustrator 27.7.0, SVG Export Plug-In . SVG Version: 6.00 Build 0)  -->
<svg version="1.1" id="Layer_1" xmlns="http://www.w3.org/2000/svg" xmlns:xlink="http://www.w3.org/1999/xlink" x="0px" y="0px"
	 viewBox="0 0 3840 960" style="enable-background:new 0 0 3840 960;" xml:space="preserve">
<style type="text/css">
	.st0{fill:#8A96CB;}
</style>
<path class="st0" d="M0,724L0,724c27.5-0.83,54.87-4.12,81.78-9.85c42.71-9.09,100.46-22.28,158.22-38.95c80-23.2,160-53.2,240-57.4
	c80-4.1,160,17.5,240,43.5s160,56.4,240,73.2s160,20.2,240,4.8c80-15.3,160-49.3,240-52.6c80-3.4,160,24,240,36.3s160,11.4,200,10
	l40-1v228h-40c-40,0-120,0-200,0s-160,0-240,0s-160,0-240,0s-160,0-240,0s-160,0-240,0s-160,0-240,0s-160,0-240,0s-160,0-200,0H0
	V724z"/>
<path class="st0" d="M3840,960h-40c-40,0-120,0-200,0s-160,0-240,0s-160,0-240,0s-160,0-240,0s-160,0-240,0s-160,0-240,0
	s-160,0-240,0s-160,0-200,0h-40V732l40,1c40,1.4,120,2.3,200-10s160-39.7,240-36.3c80,3.3,160,37.3,240,52.6c80,15.4,160,12,240-4.8
	s160-47.2,240-73.2s160-47.6,240-43.5c80,4.2,160,34.2,240,57.4c57.76,16.68,115.52,29.86,158.22,38.95
	c26.91,5.73,54.28,9.02,81.78,9.85l0,0V960z"/>
</svg>
