<?xml version="1.0" encoding="utf-8"?>
<!-- Generator: Adobe Illustrator 27.7.0, SVG Export Plug-In . SVG Version: 6.00 Build 0)  -->
<svg version="1.1" id="Layer_1" xmlns="http://www.w3.org/2000/svg" xmlns:xlink="http://www.w3.org/1999/xlink" x="0px" y="0px"
	 viewBox="0 0 3840 342.7" style="enable-background:new 0 0 3840 342.7;" xml:space="preserve" preserveAspectRatio="none">
<style type="text/css">
	.st0{fill:#8A96CB;}
</style>
<path class="st0" d="M0,106.7L0,106.7c27.5-0.8,54.9-4.1,81.8-9.8c42.7-9.1,100.5-22.3,158.2-39C320,34.7,400,4.7,480,0.5
	C560-3.6,640,18,720,44s160,56.4,240,73.2s160,20.2,240,4.8c80-15.3,160-49.3,240-52.6c80-3.4,160,24,240,36.3s160,11.4,200,10l40-1
	v228h-40c-40,0-120,0-200,0s-160,0-240,0s-160,0-240,0s-160,0-240,0s-160,0-240,0s-160,0-240,0s-160,0-240,0s-160,0-200,0H0V106.7z"
	/>
<path class="st0" d="M3840,342.7h-40c-40,0-120,0-200,0s-160,0-240,0s-160,0-240,0s-160,0-240,0s-160,0-240,0s-160,0-240,0
	s-160,0-240,0s-160,0-200,0h-40v-228l40,1c40,1.4,120,2.3,200-10s160-39.7,240-36.3c80,3.3,160,37.3,240,52.6
	c80,15.4,160,12,240-4.8S3040,70,3120,44s160-47.6,240-43.5c80,4.2,160,34.2,240,57.4c57.8,16.7,115.5,29.9,158.2,39
	c26.9,5.7,54.3,9,81.8,9.8l0,0V342.7z"/>
</svg>
