<?xml version="1.0" encoding="utf-8"?>
<!-- Generator: Adobe Illustrator 27.7.0, SVG Export Plug-In . SVG Version: 6.00 Build 0)  -->
<svg version="1.1" id="Layer_1" xmlns="http://www.w3.org/2000/svg" xmlns:xlink="http://www.w3.org/1999/xlink" x="0px" y="0px"
	 viewBox="0 0 3840 305.7" style="enable-background:new 0 0 3840 305.7;" xml:space="preserve" preserveAspectRatio="none">
<style type="text/css">
	.st0{fill:#AB98C9;}
</style>
<path class="st0" d="M0,123.7L0,123.7c25.4-0.5,50.2-7.5,72.1-20.3c43.4-25.4,105.7-56.8,167.9-63c80-8,160,25.6,240,43.6
	s160,20.4,240,5.9S880,44,960,25.2S1120,0,1200,0s160,6.4,240,23.5c80,17.2,160,45.2,240,62.5c53.8,11.7,107.6,18.5,149.3,22.8
	c30.2,3.1,60.4,4.7,90.7,4.9l0,0v192h-40c-40,0-120,0-200,0s-160,0-240,0s-160,0-240,0s-160,0-240,0s-160,0-240,0s-160,0-240,0
	s-160,0-240,0s-160,0-200,0H0V123.7z"/>
<path class="st0" d="M3840,305.7h-40c-40,0-120,0-200,0s-160,0-240,0s-160,0-240,0s-160,0-240,0s-160,0-240,0s-160,0-240,0
	s-160,0-240,0s-160,0-200,0h-40v-192l0,0c30.3-0.2,60.6-1.9,90.7-4.9c41.6-4.2,95.5-11.1,149.3-22.8c80-17.3,160-45.3,240-62.5
	C2480,6.4,2560,0,2640,0s160,6.4,240,25.2s160,50.2,240,64.7s160,12.1,240-5.9s160-51.6,240-43.6c62.3,6.2,124.5,37.7,167.9,63
	c21.9,12.8,46.7,19.8,72.1,20.3l0,0V305.7z"/>
</svg>
