<?xml version="1.0" encoding="utf-8"?>
<!-- Generator: Adobe Illustrator 27.7.0, SVG Export Plug-In . SVG Version: 6.00 Build 0)  -->
<svg version="1.1" id="Layer_1" xmlns="http://www.w3.org/2000/svg" xmlns:xlink="http://www.w3.org/1999/xlink" x="0px" y="0px"
	 viewBox="0 0 3840 960" style="enable-background:new 0 0 3840 960;" xml:space="preserve">
<style type="text/css">
	.st0{fill:#DCA0C8;}
</style>
<path class="st0" d="M0,830l1.14-0.01c24.32-0.18,48.62,1.54,72.69,5.05c43.32,6.33,104.75,12.8,166.18,6.66c80-8,160-37.4,240-51.4
	s160-12.6,240-12.8s160-1.8,240,8.3c80,10.2,160,32.2,240,48.4c80,16.1,160,26.5,240,23.1c80-3.3,160-20.3,240-21
	c60.73-0.46,121.46,8.42,164.69,16.19c24.85,4.46,50.06,6.64,75.31,6.51l0,0v101h-40c-40,0-120,0-200,0s-160,0-240,0s-160,0-240,0
	s-160,0-240,0s-160,0-240,0s-160,0-240,0s-160,0-240,0s-160,0-200,0H0V830z"/>
<path class="st0" d="M3840,960h-40c-40,0-120,0-200,0s-160,0-240,0s-160,0-240,0s-160,0-240,0s-160,0-240,0s-160,0-240,0
	s-160,0-240,0s-160,0-200,0h-40V859l0,0c25.25,0.13,50.45-2.05,75.31-6.51c43.23-7.76,103.96-16.64,164.69-16.19
	c80,0.7,160,17.7,240,21c80,3.4,160-7,240-23.1c80-16.2,160-38.2,240-48.4c80-10.1,160-8.5,240-8.3s160-1.2,240,12.8
	s160,43.4,240,51.4c61.43,6.14,122.86-0.33,166.18-6.66c24.07-3.51,48.36-5.23,72.69-5.05L3840,830V960z"/>
</svg>
